<?xml version="1.0" standalone="no"?>
<svg xmlns="http://www.w3.org/2000/svg" viewBox="0 0 147 65" width="147" height="65"><g fill="#5c989b" color="#5c989b" transform="translate(55.568 0) scale(0.0777778) "><svg width="450.0" height="450.0" x="0.0" y="0.0" viewBox="0 0 450 450"><path d="M200.9,261.6c-0.4,0-0.9-0.1-1.3-0.2l-65.5-17.6c-1.7-0.5-3.1-1.8-3.5-3.5L113,174.8c-0.5-1.7,0-3.6,1.3-4.8l48-48  c1.3-1.3,3.1-1.8,4.8-1.3l65.5,17.6c1.7,0.5,3.1,1.8,3.5,3.5l17.6,65.5c0.5,1.7,0,3.6-1.3,4.8l-48,48  C203.5,261.1,202.2,261.6,200.9,261.6z M139.4,234.9l60,16.1l43.9-43.9l-16.1-60l-60-16.1L123.4,175L139.4,234.9z"></path><path d="M183.5,370.1c-10.1,0-20.3-0.9-30.4-2.6c-36.7-6.2-70-23.5-96.4-49.9c-69.8-69.8-69.8-183.4,0-253.2  c69.8-69.8,183.4-69.8,253.2,0c24.4,24.4,41.1,54.9,48.4,88.4c7.1,32.6,5,66.5-6.1,97.9c-0.9,2.6-3.8,4-6.4,3.1  c-2.6-0.9-4-3.8-3.1-6.4c21.6-61.1,5.9-130.2-39.9-175.9c-65.9-65.9-173.2-65.9-239.1,0c-65.9,65.9-65.9,173.2,0,239.1  c49.8,49.8,126.3,63.5,190.3,34c2.5-1.2,5.5-0.1,6.6,2.4c1.2,2.5,0.1,5.5-2.4,6.6C234.6,364.6,209.2,370.1,183.5,370.1z"></path><path d="M343.6,128.2c-0.4,0-0.9-0.1-1.3-0.2l-72.9-19.5c-1.7-0.5-3.1-1.8-3.5-3.5L246.4,32c-0.7-2.7,0.9-5.4,3.5-6.1  c2.7-0.7,5.4,0.9,6.1,3.5l18.8,70.1l70.1,18.8c2.7,0.7,4.3,3.5,3.5,6.1C347.9,126.7,345.8,128.2,343.6,128.2z"></path><path d="M311.7,261.7c-2.2,0-4.2-1.5-4.8-3.7l-9-33.6c-0.5-1.7,0-3.6,1.3-4.8l53.3-53.3c2-2,5.1-2,7.1,0c2,2,2,5.1,0,7.1l-51.3,51.3  l8.3,30.9c0.7,2.7-0.9,5.4-3.5,6.1C312.6,261.7,312.2,261.7,311.7,261.7z"></path><path d="M258,326.9c-0.4,0-0.9-0.1-1.3-0.2L214,315.3c-2.7-0.7-4.3-3.5-3.5-6.1c0.7-2.7,3.5-4.3,6.1-3.5l42.7,11.4  c2.7,0.7,4.3,3.5,3.5,6.1C262.3,325.4,260.2,326.9,258,326.9z"></path><path d="M115.4,356.4c-2.2,0-4.2-1.5-4.8-3.7l-18.8-70.1l-70.1-18.8c-2.7-0.7-4.3-3.5-3.5-6.1c0.7-2.7,3.5-4.2,6.1-3.5l72.9,19.5  c1.7,0.5,3.1,1.8,3.5,3.5l19.5,72.9c0.7,2.7-0.9,5.4-3.5,6.1C116.3,356.3,115.9,356.4,115.4,356.4z"></path><path d="M10.6,217.4c-2.5,0-4.6-1.9-5-4.4c-5.7-46.5,6.6-92.6,34.8-129.8c1.2-1.5,3.1-2.3,4.9-1.9s3.4,1.8,3.9,3.6l19.5,72.9  c0.7,2.7-0.9,5.4-3.5,6.1c-2.7,0.7-5.4-0.9-6.1-3.5L42.3,97.8c-22.3,33.5-31.7,73.6-26.8,114c0.3,2.7-1.6,5.2-4.4,5.6  C11,217.4,10.8,217.4,10.6,217.4z"></path><path d="M151.3,76.6c-0.4,0-0.9-0.1-1.3-0.2L77.2,56.9c-2.7-0.7-4.3-3.5-3.5-6.1s3.5-4.3,6.1-3.5l70.1,18.8l51.3-51.3  c2-2,5.1-2,7.1,0c2,2,2,5.1,0,7.1l-53.3,53.3C153.9,76.1,152.6,76.6,151.3,76.6z"></path><path d="M231.3,148.1c-1.3,0-2.6-0.5-3.5-1.5c-2-2-2-5.1,0-7.1l39.4-39.4c2-2,5.1-2,7.1,0c2,2,2,5.1,0,7.1l-39.4,39.4  C233.9,147.6,232.6,148.1,231.3,148.1z"></path><path d="M302.7,228.1c-0.4,0-0.9-0.1-1.3-0.2l-53.9-14.4c-2.7-0.7-4.3-3.5-3.5-6.1c0.7-2.7,3.5-4.3,6.1-3.5l53.9,14.4  c2.7,0.7,4.3,3.5,3.5,6.1C307,226.6,304.9,228.1,302.7,228.1z"></path><path d="M215.3,315.5c-2.2,0-4.2-1.5-4.8-3.7L196,257.9c-0.7-2.7,0.9-5.4,3.5-6.1c2.7-0.7,5.4,0.9,6.1,3.5l14.4,53.9  c0.7,2.7-0.9,5.4-3.5,6.1C216.2,315.4,215.7,315.5,215.3,315.5z"></path><path d="M95.9,283.5c-1.3,0-2.6-0.5-3.5-1.5c-2-2-2-5.1,0-7.1l39.4-39.4c2-2,5.1-2,7.1,0c2,2,2,5.1,0,7.1L99.4,282  C98.5,283,97.2,283.5,95.9,283.5z"></path><path d="M117.8,178.5c-0.4,0-0.9-0.1-1.3-0.2l-53.9-14.4c-2.7-0.7-4.3-3.5-3.5-6.1c0.7-2.7,3.5-4.3,6.1-3.5l53.9,14.4  c2.7,0.7,4.3,3.5,3.5,6.1C122,177,120,178.5,117.8,178.5z"></path><path d="M165.8,130.5c-2.2,0-4.2-1.5-4.8-3.7l-14.4-53.9c-0.7-2.7,0.9-5.4,3.5-6.1c2.7-0.7,5.4,0.9,6.1,3.5l14.4,53.9  c0.7,2.7-0.9,5.4-3.5,6.1C166.6,130.5,166.2,130.5,165.8,130.5z"></path><path d="M163.4,369c-1.3,0-2.5-0.5-3.5-1.4c-2-1.9-2-5.1-0.1-7.1l51.9-53.5c1.9-2,5.1-2,7.1-0.1c2,1.9,2,5.1,0.1,7.1L167,367.5  C166.1,368.5,164.7,369,163.4,369z"></path><path d="M10.5,217.4c-1.3,0-2.6-0.5-3.5-1.5c-2-2-2-5.1,0-7.1l53.4-53.4c2-2,5.1-2,7.1,0c2,2,2,5.1,0,7.1L14.1,216  C13.1,216.9,11.8,217.4,10.5,217.4z"></path><path d="M348.6,439.4c-25,0-50-9.5-69.1-28.6c-18.5-18.5-28.6-43-28.6-69.1c0-26.1,10.2-50.6,28.6-69.1c18.5-18.5,43-28.6,69.1-28.6  c26.1,0,50.6,10.2,69.1,28.6l0,0l0,0c18.5,18.5,28.6,43,28.6,69.1c0,26.1-10.2,50.6-28.6,69.1C398.6,429.9,373.6,439.4,348.6,439.4z   M348.6,254.1c-23.4,0-45.4,9.1-62,25.7c-16.6,16.6-25.7,38.6-25.7,62c0,23.4,9.1,45.4,25.7,62c17.1,17.1,39.6,25.6,62,25.6  c22.5,0,44.9-8.5,62-25.6c16.6-16.6,25.7-38.6,25.7-62c0-23.4-9.1-45.4-25.7-62l0,0C394,263.2,372,254.1,348.6,254.1z"></path><path d="M348.6,382.7h-18c-2.8,0-5-2.2-5-5s2.2-5,5-5h18c7.1,0,13-5.8,13-13s-5.8-13-13-13c-12.7,0-23-10.3-23-23s10.3-23,23-23h18  c2.8,0,5,2.2,5,5s-2.2,5-5,5h-18c-7.1,0-13,5.8-13,13s5.8,13,13,13c12.7,0,23,10.3,23,23S361.2,382.7,348.6,382.7z"></path><path d="M348.6,310.9c-2.8,0-5-2.2-5-5v-12.4c0-2.8,2.2-5,5-5s5,2.2,5,5v12.4C353.6,308.6,351.3,310.9,348.6,310.9z"></path><path d="M348.6,395.1c-2.8,0-5-2.2-5-5v-12.4c0-2.8,2.2-5,5-5s5,2.2,5,5v12.4C353.6,392.8,351.3,395.1,348.6,395.1z"></path><path d="M348.6,415.5c-18.9,0-37.8-7.2-52.1-21.6c-28.7-28.7-28.7-75.5,0-104.3c13.9-13.9,32.4-21.6,52.1-21.6s38.2,7.7,52.1,21.6  l0,0l0,0c28.7,28.7,28.7,75.5,0,104.3C386.3,408.3,367.5,415.5,348.6,415.5z M348.6,278.1c-17,0-33,6.6-45.1,18.7  c-24.8,24.9-24.8,65.3,0,90.1c24.9,24.9,65.3,24.9,90.1,0c24.8-24.9,24.8-65.3,0-90.1l0,0C381.6,284.7,365.6,278.1,348.6,278.1z"></path></svg></g><line x1="56.617999999999995" y1="41" x2="89.518" y2="41" stroke="#0b4e54" stroke-linecap="round"></line><path fill="#0b4e54" fill-rule="nonzero" d="M1.08 17.76Q0.62 17.76 0.31 17.45Q0 17.14 0 16.68L0 16.68L0 1.99Q0 1.54 0.31 1.21Q0.62 0.89 1.08 0.89L1.08 0.89L10.42 0.89Q10.85 0.89 11.15 1.19Q11.45 1.49 11.45 1.92L11.45 1.92Q11.45 2.35 11.15 2.64Q10.85 2.93 10.42 2.93L10.42 2.93L2.18 2.93L2.18 8.23L9.58 8.23Q10.01 8.23 10.31 8.53Q10.61 8.83 10.61 9.26L10.61 9.26Q10.61 9.70 10.31 9.98Q10.01 10.27 9.58 10.27L9.58 10.27L2.18 10.27L2.18 16.68Q2.18 17.14 1.86 17.45Q1.54 17.76 1.08 17.76L1.08 17.76ZM18.60 17.88Q16.75 17.88 15.36 17.09Q13.97 16.30 13.21 14.84Q12.46 13.39 12.46 11.52L12.46 11.52Q12.46 9.65 13.21 8.20Q13.97 6.74 15.36 5.95Q16.75 5.16 18.60 5.16L18.60 5.16Q20.42 5.16 21.82 5.95Q23.21 6.74 23.98 8.20Q24.74 9.65 24.74 11.52L24.74 11.52Q24.74 13.39 23.98 14.84Q23.21 16.30 21.82 17.09Q20.42 17.88 18.60 17.88L18.60 17.88ZM18.60 15.89Q19.58 15.89 20.48 15.43Q21.38 14.98 21.97 13.99Q22.56 13.01 22.56 11.50L22.56 11.50Q22.56 10.01 21.97 9.02Q21.38 8.04 20.48 7.60Q19.58 7.15 18.60 7.15L18.60 7.15Q17.59 7.15 16.69 7.60Q15.79 8.04 15.22 9.02Q14.64 10.01 14.64 11.50L14.64 11.50Q14.64 13.01 15.22 13.99Q15.79 14.98 16.69 15.43Q17.59 15.89 18.60 15.89L18.60 15.89ZM33.19 17.88Q31.34 17.88 29.95 17.09Q28.56 16.30 27.80 14.84Q27.05 13.39 27.05 11.52L27.05 11.52Q27.05 9.65 27.80 8.20Q28.56 6.74 29.95 5.95Q31.34 5.16 33.19 5.16L33.19 5.16Q35.02 5.16 36.41 5.95Q37.80 6.74 38.57 8.20Q39.34 9.65 39.34 11.52L39.34 11.52Q39.34 13.39 38.57 14.84Q37.80 16.30 36.41 17.09Q35.02 17.88 33.19 17.88L33.19 17.88ZM33.19 15.89Q34.18 15.89 35.08 15.43Q35.98 14.98 36.56 13.99Q37.15 13.01 37.15 11.50L37.15 11.50Q37.15 10.01 36.56 9.02Q35.98 8.04 35.08 7.60Q34.18 7.15 33.19 7.15L33.19 7.15Q32.18 7.15 31.28 7.60Q30.38 8.04 29.81 9.02Q29.23 10.01 29.23 11.50L29.23 11.50Q29.23 13.01 29.81 13.99Q30.38 14.98 31.28 15.43Q32.18 15.89 33.19 15.89L33.19 15.89ZM46.51 17.88Q43.01 17.88 43.01 14.71L43.01 14.71L43.01 7.27L41.30 7.27Q41.11 7.27 40.98 7.14Q40.85 7.01 40.85 6.82L40.85 6.82Q40.85 6.58 41.06 6.41L41.06 6.41L44.33 3.22Q44.54 3 44.74 3L44.74 3Q44.93 3 45.06 3.14Q45.19 3.29 45.19 3.48L45.19 3.48L45.19 5.40L47.90 5.40Q48.31 5.40 48.58 5.66Q48.84 5.93 48.84 6.34L48.84 6.34Q48.84 6.72 48.58 7.00Q48.31 7.27 47.90 7.27L47.90 7.27L45.19 7.27L45.19 14.52Q45.19 15.46 45.64 15.71Q46.08 15.96 46.75 15.96L46.75 15.96Q47.23 15.96 47.71 15.82L47.71 15.82Q47.81 15.79 47.92 15.77Q48.02 15.74 48.19 15.74L48.19 15.74Q48.53 15.74 48.79 16.00Q49.06 16.25 49.06 16.61L49.06 16.61Q49.06 17.16 48.50 17.45L48.50 17.45Q47.57 17.88 46.51 17.88L46.51 17.88ZM57.74 17.88Q55.39 17.88 53.64 16.06L53.64 16.06L53.64 16.68Q53.64 17.14 53.32 17.45Q52.99 17.76 52.54 17.76L52.54 17.76Q52.08 17.76 51.77 17.45Q51.46 17.14 51.46 16.68L51.46 16.68L51.46 1.10Q51.46 0.65 51.77 0.32Q52.08 0 52.54 0L52.54 0Q53.02 0 53.33 0.31Q53.64 0.62 53.64 1.10L53.64 1.10L53.64 6.98Q55.39 5.16 57.74 5.16L57.74 5.16Q59.23 5.16 60.56 5.92Q61.90 6.67 62.72 8.12Q63.55 9.58 63.55 11.52L63.55 11.52Q63.55 13.46 62.72 14.92Q61.90 16.37 60.56 17.12Q59.23 17.88 57.74 17.88L57.74 17.88ZM57.43 15.84Q59.21 15.84 60.29 14.71Q61.37 13.58 61.37 11.52L61.37 11.52Q61.37 9.46 60.29 8.33Q59.21 7.20 57.43 7.20L57.43 7.20Q56.33 7.20 55.36 7.69Q54.38 8.18 53.64 9L53.64 9L53.64 14.04Q54.38 14.86 55.36 15.35Q56.33 15.84 57.43 15.84L57.43 15.84ZM69.72 17.88Q68.66 17.88 67.76 17.45Q66.86 17.02 66.34 16.19Q65.81 15.36 65.81 14.28L65.81 14.28Q65.81 12.50 67.21 11.45Q68.62 10.39 71.33 10.39L71.33 10.39L74.23 10.39L74.23 10.20Q74.23 8.62 73.45 7.92Q72.67 7.22 71.02 7.22L71.02 7.22Q70.10 7.22 69.40 7.37Q68.69 7.51 67.82 7.80L67.82 7.80Q67.63 7.85 67.51 7.85L67.51 7.85Q67.15 7.85 66.89 7.58Q66.62 7.32 66.62 6.94L66.62 6.94Q66.62 6.29 67.25 6.02L67.25 6.02Q69.29 5.16 71.40 5.16L71.40 5.16Q73.06 5.16 74.20 5.83Q75.34 6.50 75.88 7.57Q76.42 8.64 76.42 9.89L76.42 9.89L76.42 16.68Q76.42 17.14 76.09 17.45Q75.77 17.76 75.31 17.76L75.31 17.76Q74.86 17.76 74.54 17.45Q74.23 17.14 74.23 16.68L74.23 16.68L74.23 16.06Q72.46 17.88 69.72 17.88L69.72 17.88ZM70.54 15.96Q71.59 15.96 72.58 15.44Q73.56 14.93 74.23 14.16L74.23 14.16L74.23 12.14L71.62 12.14Q67.99 12.14 67.99 14.04L67.99 14.04Q67.99 14.90 68.58 15.43Q69.17 15.96 70.54 15.96L70.54 15.96ZM81.17 17.76Q80.71 17.76 80.40 17.45Q80.09 17.14 80.09 16.68L80.09 16.68L80.09 1.10Q80.09 0.65 80.40 0.32Q80.71 0 81.17 0L81.17 0Q81.65 0 81.96 0.31Q82.27 0.62 82.27 1.10L82.27 1.10L82.27 16.68Q82.27 17.14 81.95 17.45Q81.62 17.76 81.17 17.76L81.17 17.76ZM87.14 17.76Q86.69 17.76 86.38 17.45Q86.06 17.14 86.06 16.68L86.06 16.68L86.06 1.10Q86.06 0.65 86.38 0.32Q86.69 0 87.14 0L87.14 0Q87.62 0 87.94 0.31Q88.25 0.62 88.25 1.10L88.25 1.10L88.25 16.68Q88.25 17.14 87.92 17.45Q87.60 17.76 87.14 17.76L87.14 17.76ZM99.79 17.64Q99.34 17.64 99.02 17.33Q98.71 17.02 98.71 16.56L98.71 16.56L98.71 1.99Q98.71 1.54 99.02 1.21Q99.34 0.89 99.79 0.89L99.79 0.89L105.46 0.89Q108.02 0.89 109.43 2.06Q110.83 3.24 110.83 5.23L110.83 5.23Q110.83 6.62 110.17 7.55Q109.51 8.47 108.48 8.93L108.48 8.93Q109.92 9.38 110.84 10.39Q111.77 11.40 111.77 12.94L111.77 12.94Q111.77 15.14 110.28 16.39Q108.79 17.64 105.60 17.64L105.60 17.64L99.79 17.64ZM100.90 8.14L104.88 8.14Q107.02 8.14 107.88 7.42Q108.74 6.70 108.74 5.40L108.74 5.40Q108.74 4.27 107.82 3.60Q106.90 2.93 105.29 2.93L105.29 2.93L100.90 2.93L100.90 8.14ZM100.90 15.60L105.38 15.60Q107.71 15.60 108.68 14.88Q109.66 14.16 109.66 12.84L109.66 12.84Q109.66 10.10 105.41 10.10L105.41 10.10L100.90 10.10L100.90 15.60ZM120.26 17.88Q117.34 17.88 115.69 16.21Q114.05 14.54 114.05 11.52L114.05 11.52Q114.05 9.82 114.67 8.38Q115.30 6.94 116.59 6.05Q117.89 5.16 119.78 5.16L119.78 5.16Q121.56 5.16 122.86 5.99Q124.15 6.82 124.82 8.20Q125.50 9.58 125.50 11.21L125.50 11.21Q125.50 11.66 125.20 11.98Q124.90 12.29 124.39 12.29L124.39 12.29L116.26 12.29Q116.45 13.97 117.50 14.90Q118.56 15.84 120.46 15.84L120.46 15.84Q121.46 15.84 122.22 15.65Q122.98 15.46 123.70 15.10L123.70 15.10Q123.89 15 124.13 15L124.13 15Q124.51 15 124.80 15.26Q125.09 15.53 125.09 15.94L125.09 15.94Q125.09 16.46 124.46 16.82L124.46 16.82Q123.53 17.35 122.62 17.62Q121.70 17.88 120.26 17.88L120.26 17.88ZM116.26 10.51L123.34 10.51Q123.26 9.34 122.72 8.54Q122.18 7.75 121.39 7.38Q120.60 7.01 119.78 7.01L119.78 7.01Q118.97 7.01 118.18 7.38Q117.38 7.75 116.86 8.54Q116.33 9.34 116.26 10.51L116.26 10.51ZM132.60 17.88Q129.10 17.88 129.10 14.71L129.10 14.71L129.10 7.27L127.39 7.27Q127.20 7.27 127.07 7.14Q126.94 7.01 126.94 6.82L126.94 6.82Q126.94 6.58 127.15 6.41L127.15 6.41L130.42 3.22Q130.63 3 130.82 3L130.82 3Q131.02 3 131.15 3.14Q131.28 3.29 131.28 3.48L131.28 3.48L131.28 5.40L133.99 5.40Q134.40 5.40 134.66 5.66Q134.93 5.93 134.93 6.34L134.93 6.34Q134.93 6.72 134.66 7.00Q134.40 7.27 133.99 7.27L133.99 7.27L131.28 7.27L131.28 14.52Q131.28 15.46 131.72 15.71Q132.17 15.96 132.84 15.96L132.84 15.96Q133.32 15.96 133.80 15.82L133.80 15.82Q133.90 15.79 134.00 15.77Q134.11 15.74 134.28 15.74L134.28 15.74Q134.62 15.74 134.88 16.00Q135.14 16.25 135.14 16.61L135.14 16.61Q135.14 17.16 134.59 17.45L134.59 17.45Q133.66 17.88 132.60 17.88L132.60 17.88ZM141.50 17.88Q139.10 17.88 137.14 16.80L137.14 16.80Q136.73 16.51 136.73 16.01L136.73 16.01Q136.73 15.62 136.99 15.34Q137.26 15.05 137.66 15.05L137.66 15.05Q137.88 15.05 138.10 15.14L138.10 15.14Q138.86 15.48 139.63 15.67Q140.40 15.86 141.36 15.86L141.36 15.86Q144.02 15.86 144.02 14.16L144.02 14.16Q144.02 13.61 143.41 13.32Q142.80 13.03 141.41 12.67L141.41 12.67Q139.99 12.34 139.07 11.98Q138.14 11.62 137.48 10.88Q136.82 10.15 136.82 8.95L136.82 8.95Q136.82 7.27 138.04 6.22Q139.25 5.16 141.50 5.16L141.50 5.16Q143.35 5.16 144.98 5.76L144.98 5.76Q145.32 5.86 145.50 6.12Q145.68 6.38 145.68 6.67L145.68 6.67Q145.68 7.06 145.40 7.34Q145.13 7.63 144.72 7.63L144.72 7.63Q144.60 7.63 144.41 7.58L144.41 7.58Q143.02 7.15 141.67 7.15L141.67 7.15Q140.38 7.15 139.64 7.62Q138.91 8.09 138.91 8.83L138.91 8.83Q138.91 9.55 139.58 9.89Q140.26 10.22 141.67 10.54L141.67 10.54Q143.09 10.90 143.98 11.24Q144.86 11.59 145.50 12.34Q146.14 13.08 146.14 14.33L146.14 14.33Q146.14 15.86 144.92 16.87Q143.71 17.88 141.50 17.88L141.50 17.88Z" transform="translate(0, 47)"></path></svg>